<svg width="36" height="36" viewBox="0 0 36 36" fill="none" xmlns="http://www.w3.org/2000/svg">
<path d="M36 18C36 8.05888 27.9411 0 18 0C8.05888 0 0 8.05888 0 18C0 27.9411 8.05888 36 18 36C27.9411 36 36 27.9411 36 18Z" fill="white"/>
<path d="M19.4327 28.16V18.5249H22.6669L23.1519 14.7699H19.4327V12.3724C19.4327 11.2854 19.7347 10.5445 21.2937 10.5445H23.2821V7.18696C22.3196 7.08514 21.3523 7.03582 20.3845 7.03923C17.5176 7.03923 15.5549 8.78905 15.5549 12.0028V14.7699H12.3125V18.5249H15.5549V28.16H19.4327Z" fill="#006CBF"/>
</svg>
