<svg width="36" height="36" viewBox="0 0 36 36" fill="none" xmlns="http://www.w3.org/2000/svg">
<path d="M36 18C36 27.9408 27.9408 36 18 36C8.05918 36 0 27.9408 0 18C0 8.05918 8.05918 0 18 0C27.9408 0 36 8.05918 36 18Z" fill="white"/>
<path d="M28.7556 19.4476V26.8691H24.4533V19.9458C24.4533 18.2067 23.8329 17.0192 22.274 17.0192C21.0865 17.0192 20.3798 17.8197 20.068 18.5937C19.9537 18.8695 19.9255 19.2533 19.9255 19.6419V26.8691H15.6217C15.6217 26.8691 15.6797 15.1423 15.6217 13.9283H19.9255V15.7627C19.9177 15.7768 19.9052 15.7907 19.8973 15.8048H19.9255V15.7627C20.4974 14.8824 21.5173 13.6242 23.8031 13.6242C26.6342 13.6242 28.7556 15.4744 28.7556 19.4476ZM11.1222 7.69092C9.64942 7.69092 8.6875 8.65759 8.6875 9.92666C8.6875 11.169 9.62127 12.1622 11.0658 12.1622H11.0924C12.5934 12.1622 13.5271 11.1691 13.5271 9.92666C13.4989 8.65766 12.5934 7.69092 11.1222 7.69092ZM8.94288 26.8691H13.2435V13.9283H8.94288V26.8691Z" fill="#006CBF"/>
</svg>
