<svg width="36" height="36" viewBox="0 0 36 36" fill="none" xmlns="http://www.w3.org/2000/svg">
<circle cx="18" cy="18" r="18" fill="white"/>
<path d="M19.5314 15.8286L16.3305 19.0296C16.2555 19.104 16.1959 19.1925 16.1553 19.29C16.1147 19.3875 16.0938 19.4921 16.0938 19.5977C16.0938 19.7034 16.1147 19.808 16.1553 19.9055C16.1959 20.003 16.2555 20.0915 16.3305 20.1659C16.4049 20.2409 16.4934 20.3004 16.5909 20.3411C16.6884 20.3817 16.793 20.4026 16.8986 20.4026C17.0043 20.4026 17.1089 20.3817 17.2064 20.3411C17.3039 20.3004 17.3924 20.2409 17.4668 20.1659L20.6678 16.9649C20.8184 16.8143 20.9031 16.6099 20.9031 16.3968C20.9031 16.1837 20.8184 15.9793 20.6678 15.8286C20.5171 15.6779 20.3127 15.5933 20.0996 15.5933C19.8865 15.5933 19.6821 15.6779 19.5314 15.8286Z" fill="#006CBF"/>
<path d="M18.7198 22.3186L17.6955 23.3349C17.1205 23.9275 16.3475 24.2876 15.5239 24.3466C14.7004 24.4057 13.8839 24.1595 13.2302 23.655C12.8847 23.3703 12.6028 23.0164 12.4026 22.6159C12.2025 22.2155 12.0885 21.7775 12.0682 21.3303C12.0478 20.8831 12.1215 20.4366 12.2844 20.0196C12.4474 19.6027 12.696 19.2245 13.0141 18.9096L14.1505 17.7653C14.2255 17.6909 14.285 17.6024 14.3256 17.5049C14.3663 17.4073 14.3872 17.3027 14.3872 17.1971C14.3872 17.0915 14.3663 16.9869 14.3256 16.8894C14.285 16.7918 14.2255 16.7033 14.1505 16.6289C14.0761 16.5539 13.9876 16.4944 13.8901 16.4538C13.7925 16.4131 13.6879 16.3922 13.5823 16.3922C13.4767 16.3922 13.3721 16.4131 13.2746 16.4538C13.177 16.4944 13.0885 16.5539 13.0141 16.6289L11.9978 17.6532C11.1417 18.4823 10.6155 19.5938 10.5169 20.7815C10.4183 21.9692 10.754 23.1523 11.4617 24.1112C11.8817 24.6561 12.4129 25.1054 13.0199 25.4292C13.6269 25.753 14.2959 25.944 14.9824 25.9894C15.6689 26.0348 16.3572 25.9337 17.0016 25.6926C17.646 25.4516 18.2317 25.0761 18.7198 24.5913L19.8562 23.455C20.0069 23.3043 20.0915 23.0999 20.0915 22.8868C20.0915 22.6737 20.0069 22.4693 19.8562 22.3186C19.7055 22.1679 19.5011 22.0833 19.288 22.0833C19.0749 22.0833 18.8705 22.1679 18.7198 22.3186ZM24.6256 10.9712C23.6601 10.2562 22.4673 9.91708 21.2701 10.0172C20.0728 10.1174 18.953 10.6499 18.1197 11.5154L17.2554 12.3957C17.1566 12.4675 17.074 12.5592 17.0129 12.665C16.9519 12.7708 16.9137 12.8882 16.9009 13.0096C16.888 13.1311 16.9009 13.2538 16.9385 13.37C16.9761 13.4862 17.0378 13.5932 17.1194 13.6841C17.1938 13.7591 17.2823 13.8186 17.3798 13.8592C17.4773 13.8998 17.5819 13.9208 17.6875 13.9208C17.7932 13.9208 17.8978 13.8998 17.9953 13.8592C18.0928 13.8186 18.1813 13.7591 18.2557 13.6841L19.296 12.6357C19.8679 12.0406 20.64 11.6785 21.4632 11.6194C22.2864 11.5603 23.1023 11.8083 23.7533 12.3156C24.1014 12.6004 24.3856 12.9552 24.5873 13.3571C24.7891 13.759 24.9039 14.1989 24.9243 14.6481C24.9447 15.0973 24.8702 15.5458 24.7056 15.9643C24.5411 16.3828 24.2903 16.762 23.9694 17.0771L22.8331 18.2214C22.7581 18.2958 22.6985 18.3843 22.6579 18.4818C22.6173 18.5793 22.5964 18.6839 22.5964 18.7896C22.5964 18.8952 22.6173 18.9998 22.6579 19.0973C22.6985 19.1949 22.7581 19.2834 22.8331 19.3578C22.9075 19.4328 22.996 19.4923 23.0935 19.5329C23.191 19.5735 23.2956 19.5945 23.4012 19.5945C23.5069 19.5945 23.6115 19.5735 23.709 19.5329C23.8065 19.4923 23.895 19.4328 23.9694 19.3578L25.1058 18.2214C25.5892 17.7333 25.9635 17.1481 26.2037 16.5045C26.444 15.8609 26.5447 15.1736 26.4993 14.4881C26.4539 13.8027 26.2634 13.1346 25.9404 12.5283C25.6174 11.922 25.1692 11.3913 24.6256 10.9712Z" fill="#006CBF"/>
</svg>
